# xmcd
#
# Track frame offsets:
#	150
#	9792
#	19390
#	30381
#	42041
#	57460
#	69792
#	80758
#	91857
#	101461
#
# Disc length: 1485 seconds
#
# Revision: 0
# Processed by: cddbd v1.5.2PL0 Copyright (c) Steve Scherf et al.
# Submitted via: audiograbber 1.83.01
#
DISCID=6a05cb0a
DTITLE=Various Artist - Truckin' Country Jukebox
DYEAR=2006
DGENRE=Country
TTITLE0=Dave Dudley - Six Days on the Road
TTITLE1=Ferlin Husky - Truck Drivin' Son of a Gun
TTITLE2=Roger Miller - King of the Road
TTITLE3=Johnny Cash - Wide Open Road
TTITLE4=Red Simpson - I'm a Truck
TTITLE5=Bobby Bare - 500 Miles Away from Home
TTITLE6=Dave Dudley - How Fast Them Trucks Can Go
TTITLE7=Roy Acuff - The Wreck on the Highway
TTITLE8=Mel McDaniel - Let It Roll (Let It Rock)
TTITLE9=Dave Dudley - Diesel Smoke
EXTD=
EXTT0=
EXTT1=
EXTT2=
EXTT3=
EXTT4=
EXTT5=
EXTT6=
EXTT7=
EXTT8=
EXTT9=
PLAYORDER=
